<svg width="300" height="300" viewBox="0 0 300 300" fill="none" xmlns="http://www.w3.org/2000/svg">
<circle cx="150" cy="150" r="150" fill="#34495E"/>
<path d="M253.817 229.181L234.284 176.375C231.444 168.696 223.919 163.571 215.485 163.571H150H84.5153C76.0812 163.571 68.5565 168.696 65.7159 176.375L46.1833 229.181C41.532 241.756 51.1718 254.99 64.9827 254.99H150H235.017C248.828 254.99 258.468 241.756 253.817 229.181Z" fill="#283758"/>
<path d="M253.817 229.181L234.284 176.375C231.444 168.696 223.919 163.571 215.485 163.571H150V254.989H235.017C248.828 254.99 258.468 241.756 253.817 229.181Z" fill="#283758"/>
<path d="M150 45C114.762 45 86.1966 75.1044 86.1966 112.24C86.1966 118.914 87.1192 126.638 88.8371 134.82H211.163C212.88 126.639 213.803 118.914 213.803 112.24C213.803 75.1044 185.238 45 150 45Z" fill="#283758"/>
<path d="M150 45V134.82H211.162C212.88 126.639 213.803 118.914 213.803 112.24C213.803 75.1044 185.238 45 150 45Z" fill="#283758"/>
<path d="M211.615 135.804C211.615 155.653 175.29 179.743 158.422 189.86C153.32 192.92 146.679 192.92 141.577 189.86C124.71 179.743 88.385 155.652 88.385 135.804C88.385 109.954 115.971 88.998 150 88.998C184.028 88.998 211.615 109.954 211.615 135.804Z" fill="#182135"/>
<path d="M150 88.9984V192.155C152.936 192.155 155.872 191.39 158.422 189.86C175.29 179.743 211.615 155.653 211.615 135.805C211.615 109.954 184.029 88.9984 150 88.9984Z" fill="#182135"/>
<path d="M185.351 109.675C185.303 104.756 180.121 101.421 175.361 103.202L152.655 111.696C151.801 112.016 150.9 112.175 150 112.175C149.1 112.175 148.199 112.016 147.345 111.696L124.639 103.202C119.879 101.421 114.697 104.756 114.65 109.675C114.649 109.71 114.649 109.746 114.649 109.78V115.961C114.649 115.961 114.662 133.813 114.675 134.132C114.943 140.778 117.184 147.211 120.92 152.805L122.619 155.348C129.13 165.097 139.578 169.937 150 169.873C160.422 169.937 170.87 165.097 177.382 155.348L179.081 152.805C182.817 147.211 185.057 140.778 185.325 134.132C185.338 133.813 185.351 115.961 185.351 115.961V109.78C185.351 109.745 185.351 109.71 185.351 109.675Z" fill="#F5DFBB"/>
<path d="M185.35 109.675C185.303 104.756 180.121 101.421 175.361 103.202L152.655 111.696C151.801 112.016 150.9 112.175 150 112.175V169.873C160.422 169.937 170.87 165.097 177.382 155.348L179.081 152.805C182.817 147.211 185.057 140.778 185.325 134.132C185.338 133.813 185.351 115.961 185.351 115.961V109.78C185.351 109.745 185.351 109.71 185.35 109.675Z" fill="#F5DFBB"/>
<path d="M207.997 255H93.3208C89.8301 255 87 252.245 87 248.848V169.726C87 166.328 89.8301 163.574 93.3208 163.574H207.997C211.488 163.574 214.318 166.328 214.318 169.726V248.848C214.318 252.245 211.488 255 207.997 255Z" fill="#FBF4F4"/>
<path d="M207.997 163.571H150.659V254.997H207.997C211.488 254.997 214.318 251.935 214.318 248.158V170.41C214.318 166.633 211.488 163.571 207.997 163.571Z" fill="#FBF4F4"/>
</svg>
